<?xml version="1.0" encoding="utf-8"?>
<!-- Uploaded to: SVG Repo, www.svgrepo.com, Generator: SVG Repo Mixer Tools -->
<svg width="800px" height="800px" viewBox="0 0 128 128" xmlns="http://www.w3.org/2000/svg" xmlns:xlink="http://www.w3.org/1999/xlink" aria-hidden="true" role="img" class="iconify iconify--noto" preserveAspectRatio="xMidYMid meet">
<path d="M51.47 37.93C25.35 37.24-5.38 8.76 5.01 39.2c5.98 17.5 26.2 26.03 46.46 25.77c20.26.26 40.48-8.26 46.46-25.77c10.39-30.44-20.34-1.96-46.46-1.27z" fill="#e59600">
</path>
<path d="M51.72 90.68H42.8v10.68c0 4.83 3.63 8.74 8.11 8.74h1.62c4.48 0 8.11-3.92 8.11-8.74V90.68h-8.92z" fill="#3c2b24">
</path>
<path d="M78.31 51.78H24.63c-5.79 0-10.52 5.04-10.52 11.21S18.84 74.2 24.63 74.2H78.32c5.79 0 10.52-5.04 10.52-11.21S84.1 51.78 78.31 51.78z" fill="#3c2b24">
</path>
<path d="M51.47 13.11c-17.1 0-32.93 18.28-32.93 44.59c0 26.17 16.31 39.1 32.93 39.1S84.4 83.87 84.4 57.7c0-26.31-15.83-44.59-32.93-44.59z" fill="#70534a">
</path>
<g fill="#1a1717">
<path d="M28.67 51.84c2.95-4.19 9.68-4.58 13.53-1.47c.61.49 1.42 1.19 1.67 1.96c.39 1.26-.81 2.24-1.99 1.94c-.75-.19-1.45-.59-2.2-.82c-1.35-.43-2.33-.54-3.55-.55c-1.8-.01-2.96.22-4.67.91c-.7.29-1.28.74-2.08.41c-.92-.38-1.26-1.55-.71-2.38z">
</path>
<path d="M72.32 54.22c-.29-.12-.56-.29-.85-.41c-1.76-.74-2.76-.92-4.67-.91c-1.68.01-2.69.24-3.99.69c-.81.28-1.82.97-2.71.7c-1.3-.4-1.26-1.82-.55-2.73c.85-1.07 2.01-1.88 3.26-2.42c2.87-1.24 6.38-1.07 9.08.54c.89.53 1.85 1.25 2.38 2.16c.74 1.29-.43 3-1.95 2.38z">
</path>
</g>
<g fill="#1a1717">
<ellipse cx="36.17" cy="60.01" rx="4.84" ry="5.01">
</ellipse>
<ellipse cx="66.77" cy="60.01" rx="4.84" ry="5.01">
</ellipse>
</g>
<path d="M59.85 77.04c-3.13 1.86-13.39 1.86-16.52 0c-1.8-1.07-3.63.57-2.89 2.2c.73 1.61 6.33 5.33 11.17 5.33s10.36-3.72 11.1-5.33c.75-1.64-1.06-3.27-2.86-2.2z" fill="#1a1717">
</path>
<path d="M55.26 69.09c-.1-.04-.21-.07-.32-.08H48c-.11.01-.21.04-.32.08c-.63.26-.98.91-.68 1.6c.3.69 1.68 2.64 4.47 2.64s4.17-1.95 4.47-2.64c.3-.69-.05-1.34-.68-1.6z" fill="#33251f">
</path>
<path d="M87.37 57.6l-.14.36l-.12.32l-.34.87c-.03.09-.06.17-.1.26l-2.27 5.8c-.13.34-.62.31-.7-.05c-.13-.56-.3-1.3-.5-2.18c-.22-1.01-.5-2.21-.8-3.51c-.58-2.49-1.26-5.37-1.95-8.15c-.38-1.5-.75-2.98-1.11-4.35c-.31-1.14-.6-2.2-.88-3.14c-.25-.86-.49-1.63-.71-2.26c-.07-.22-.14-.42-.21-.6c-1.03-2.74-3.87-4.33-6.75-3.81c-4.42.8-11.46 1.8-19.24 1.8c-.02 0-.05-.01-.08-.01s-.05.01-.08.01c-7.77 0-14.82-1-19.24-1.8c-2.88-.52-5.72 1.07-6.75 3.81c-.71 1.88-1.7 5.52-2.69 9.47c-.12.48-.24.96-.36 1.45c-.19.74-.37 1.5-.55 2.25c-.15.6-.29 1.2-.43 1.79c-.01.01-.01.02-.01.04c-.14.58-.28 1.16-.41 1.73c-.01.02-.01.03-.01.04c-.14.57-.27 1.13-.39 1.66c-.26 1.11-.5 2.15-.71 3.06c-.15.66-.29 1.25-.4 1.77c-.08.35-.15.67-.21.94c-.01.05-.03.09-.05.12a.36.36 0 0 1-.66-.03c-.69-1.76-2-5.19-2.61-6.79l-.07-.19c-.07-.18-.13-.33-.17-.44l-.09-.24s-1.04-5.79-.72-13.5c.01-.25.02-.51.04-.77c.02-.51.06-1.04.1-1.57c.01-.22.03-.44.05-.66c.23-2.68.64-5.53 1.32-8.39h70.2c3 12.6.8 24.89.8 24.89z" fill="#232020">
</path>
<radialGradient id="IconifyId17ecdb2904d178eab11202" cx="51.473" cy="71.789" r="35.435" gradientTransform="matrix(1 0 0 -1.1282 0 137.202)" gradientUnits="userSpaceOnUse">
<stop offset=".794" stop-color="#444140" stop-opacity="0">
</stop>
<stop offset="1" stop-color="#444140">
</stop>
</radialGradient>
<path d="M87.37 57.6l-.14.36l-.12.32c-.09.24-.21.54-.34.87c-.03.09-.06.17-.1.26c-.67 1.77-1.69 4.4-2.27 5.86a.36.36 0 0 1-.69-.05c0-.02-.01-.04-.01-.06c-.13-.56-.3-1.3-.5-2.18c-.23-1.01-.5-2.21-.8-3.51c-.58-2.49-1.26-5.37-1.95-8.15c-.37-1.51-.75-2.98-1.11-4.35c-.31-1.14-.6-2.2-.88-3.14c-.25-.86-.49-1.63-.71-2.26c-.07-.22-.14-.42-.21-.6c-1.03-2.74-3.87-4.33-6.75-3.81c-4.42.8-11.46 1.8-19.24 1.8c-.02 0-.05-.01-.08-.01s-.05.01-.08.01c-7.77 0-14.82-1-19.24-1.8c-2.88-.52-5.72 1.07-6.75 3.81c-.71 1.88-1.7 5.52-2.69 9.47c-.12.48-.24.96-.36 1.45c-.19.74-.37 1.5-.55 2.25c-.15.6-.29 1.2-.43 1.79c-.01.01-.01.02-.01.04c-.14.59-.28 1.17-.41 1.73c-.01.02-.01.03-.01.04c-.14.57-.26 1.12-.39 1.66c-.26 1.11-.5 2.15-.71 3.06c-.15.66-.28 1.26-.4 1.77c-.08.35-.15.67-.21.94c-.01.05-.03.09-.05.12c-.15.23-.53.22-.65-.07l-2.62-6.75l-.07-.19l-.17-.44l-.09-.24s-1.04-5.79-.72-13.5c.01-.25.02-.51.04-.77c.02-.51.06-1.04.1-1.57c.01-.22.03-.44.05-.66c.23-2.68.64-5.53 1.32-8.39h70.2c3 12.6.8 24.89.8 24.89z" fill="url(#IconifyId17ecdb2904d178eab11202)">
</path>
<linearGradient id="IconifyId17ecdb2904d178eab11203" gradientUnits="userSpaceOnUse" x1="51.471" y1="120.426" x2="51.471" y2="96.641" gradientTransform="matrix(1 0 0 -1 0 128)">
<stop offset=".003" stop-color="#fff59d">
</stop>
<stop offset=".553" stop-color="#fee565">
</stop>
<stop offset=".996" stop-color="#fdd835">
</stop>
</linearGradient>
<path d="M77.49 29.04C72.67 17.05 67.93 7.59 61.86 6.86c-1.62-.19-5.86-.73-10.15-.74c-4.45 0-8.95.54-10.62.74c-6.07.73-10.81 10.19-15.64 22.17c-2.62 6.5 54.66 6.5 52.04.01z" fill="url(#IconifyId17ecdb2904d178eab11203)">
</path>
<linearGradient id="IconifyId17ecdb2904d178eab11204" gradientUnits="userSpaceOnUse" x1="51.47" y1="101.453" x2="51.47" y2="72.425" gradientTransform="matrix(1 0 0 -1 0 128)">
<stop offset=".003" stop-color="#fff59d">
</stop>
<stop offset=".553" stop-color="#fee565">
</stop>
<stop offset=".996" stop-color="#fdd835">
</stop>
</linearGradient>
<path d="M91.57 24.72c-9.43 1.71-25.18 3.7-39.53 3.76H50.9c-14.35-.06-30.1-2.05-39.53-3.76c-8.14-1.48-8.43 3.84-8.43 3.84s2.58-3.19 7.11 1.23c7.03 6.86 18.48 17.75 40.77 17.84c.22 0 .43-.01.65-.01c.22 0 .43.01.65.01c22.3-.1 33.74-10.98 40.77-17.84c4.53-4.42 7.11-1.23 7.11-1.23s-.29-5.32-8.43-3.84z" fill="url(#IconifyId17ecdb2904d178eab11204)">
</path>
<g>
<path d="M51.47 27.43c-7.54 0-17.02-.75-21.84-1.17c3.86-1.89 11.66-4.92 21.84-4.92s17.97 3.04 21.84 4.92c-4.82.42-14.3 1.17-21.84 1.17z" fill="#78909c">
</path>
<path d="M51.47 22.29c7.54 0 13.75 1.7 17.96 3.32c-5.09.4-12.11.85-17.96.85s-12.87-.45-17.96-.85a50.34 50.34 0 0 1 17.96-3.32m0-1.92c-15.18 0-25.05 6.55-25.05 6.55s14.37 1.47 25.05 1.47s25.05-1.47 25.05-1.47s-9.87-6.55-25.05-6.55z" fill="#90a4ae">
</path>
</g>
<g>
<path fill="none" stroke="#d18100" stroke-width="5" stroke-miterlimit="10" d="M107.48 109.01V124">
</path>
<path d="M108.64 116.76h-2.32c-1.39 0-2.51 0-2.51-2.51v-12.01h7.33v12.01c.01 2.13-1.12 2.51-2.5 2.51z" fill="#636363">
</path>
<path d="M116.73 99.5c-1.84 0-7.74.06-9.07.06c-2.12 0-7.74-.19-10.03-.19c-7.48 0-7.54-26.69-7.54-26.69v24.71c0 6.69 3.42 8.83 9.42 9.05h15.38c5.42 0 7.35-3.71 7.35-8.15l-.38-4.86c-.02.01-1.47 6.07-5.13 6.07z" fill="#616161">
</path>
<linearGradient id="IconifyId17ecdb2904d178eab11205" gradientUnits="userSpaceOnUse" x1="106.778" y1="19.532" x2="106.778" y2="78.202" gradientTransform="matrix(1 0 0 -1 0 128)">
<stop offset="0" stop-color="#757575">
</stop>
<stop offset=".482" stop-color="#9e9e9e">
</stop>
</linearGradient>
<path d="M123.37 38.4c-.11-.42-.73-.41-.83.01l-1.15 4.68l-2 52.18s-.01.27-.01.41c0 1.54-1.19 2.64-2.73 2.64s-2.81-1.12-2.81-2.66c0-.22.6-52.38.6-52.38l-1.19-5.13c-.11-.42-.72-.42-.83-.01l-1.35 5.05l-.62 52.15c0 1.7-1.03 2.99-2.73 2.99s-3.08-1.38-3.08-3.08l-.3-52.17l-1.18-4.94c-.11-.41-.71-.41-.83 0l-1.5 5.15l.03 51.86c0 1.76-1.22 3.19-2.98 3.19c-1.96 0-3.4-1.43-3.4-3.19l-2.04-52.06l-1.34-4.97c-.11-.42-.6-.34-.72.07l-1.37 5l1.6 53.63c0 4.52 2.88 7.94 8.88 8.17h15.38c5.42 0 7.5-3.73 7.5-8.17l2.16-53.4l-1.16-5.02z" fill="url(#IconifyId17ecdb2904d178eab11205)">
</path>
</g>
<g>
<linearGradient id="IconifyId17ecdb2904d178eab11206" gradientUnits="userSpaceOnUse" x1="51.72" y1="4" x2="51.72" y2="29.982" gradientTransform="matrix(1 0 0 -1 0 128)">
<stop offset="0" stop-color="#709e3b">
</stop>
<stop offset=".328" stop-color="#73a13e">
</stop>
<stop offset=".595" stop-color="#7dab47">
</stop>
<stop offset=".839" stop-color="#8dbc57">
</stop>
<stop offset="1" stop-color="#9ccc65">
</stop>
</linearGradient>
<path d="M95.73 120.81c0-17.79-25.56-21.89-34.66-22.78l-7.67 10.54h-3.33l-7.55-10.56c-9.85.93-18.23 3.27-24.28 6.78c-6.98 4.05-10.51 9.44-10.51 16.01v3.2h88.02v-3.19z" fill="url(#IconifyId17ecdb2904d178eab11206)">
</path>
<linearGradient id="IconifyId17ecdb2904d178eab11207" gradientUnits="userSpaceOnUse" x1="51.791" y1="3.482" x2="51.791" y2="28.074" gradientTransform="matrix(1 0 0 -1 0 128)">
<stop offset="0" stop-color="#1e88e5">
</stop>
<stop offset="1" stop-color="#1565c0">
</stop>
</linearGradient>
<path fill="url(#IconifyId17ecdb2904d178eab11207)" d="M83.64 120.08l-7.17-5.52l.25-.39l-25.99.49l-23.87-.49l.25.39l-7.17 5.52l-.17 3.92h64.04z">
</path>
<linearGradient id="IconifyId17ecdb2904d178eab11208" gradientUnits="userSpaceOnUse" x1="28.334" y1="4.008" x2="28.334" y2="27.385" gradientTransform="matrix(1 0 0 -1 0 128)">
<stop offset="0" stop-color="#1e88e5">
</stop>
<stop offset="1" stop-color="#1565c0">
</stop>
</linearGradient>
<path d="M33.78 107.13l-.11-7.82s-5.79 1.2-7.87 2.1l-2.92 6.6l3.78 5.86l7.12-6.74z" fill="url(#IconifyId17ecdb2904d178eab11208)">
</path>
<linearGradient id="IconifyId17ecdb2904d178eab11209" gradientUnits="userSpaceOnUse" x1="65.915" y1="4.008" x2="65.915" y2="27.385" gradientTransform="rotate(180 70.581 64)">
<stop offset="0" stop-color="#1e88e5">
</stop>
<stop offset="1" stop-color="#1565c0">
</stop>
</linearGradient>
<path d="M69.8 107.13l.11-7.82s5.79 1.2 7.87 2.1l2.92 6.6l-3.79 5.86l-7.11-6.74z" fill="url(#IconifyId17ecdb2904d178eab11209)">
</path>
<path d="M72.97 115.61l5.17.98a2.56 2.56 0 0 0 2.98-2.03a2.56 2.56 0 0 0-2.03-2.98l-5.17-.98a2.56 2.56 0 0 0-2.98 2.03c-.26 1.39.64 2.72 2.03 2.98z" fill="#bdbdbd">
</path>
<g>
<path d="M30.61 115.61l-5.17.98c-1.38.26-2.72-.65-2.98-2.03a2.56 2.56 0 0 1 2.03-2.98l5.17-.98a2.56 2.56 0 0 1 2.98 2.03c.26 1.39-.64 2.72-2.03 2.98z" fill="#bdbdbd">
</path>
</g>
<linearGradient id="IconifyId17ecdb2904d178eab11210" gradientUnits="userSpaceOnUse" x1="43.175" y1="27.731" x2="43.175" y2="12.954" gradientTransform="matrix(1 0 0 -1 0 128)">
<stop offset="0" stop-color="#aed581">
</stop>
<stop offset="1" stop-color="#8bc34a">
</stop>
</linearGradient>
<path d="M42.38 98.03c-2.61.25-5.11.61-7.5 1.05l-.25 20.95l17.09-11.53l-9.34-10.47z" fill="url(#IconifyId17ecdb2904d178eab11210)">
</path>
<linearGradient id="IconifyId17ecdb2904d178eab11211" gradientUnits="userSpaceOnUse" x1="60.265" y1="29.912" x2="60.265" y2="12.478" gradientTransform="matrix(1 0 0 -1 0 128)">
<stop offset="0" stop-color="#aed581">
</stop>
<stop offset="1" stop-color="#8bc34a">
</stop>
</linearGradient>
<path d="M68.56 99.11c-2.96-.56-5.59-.89-7.49-1.08l-9.34 10.48l17.09 11.53l-.26-20.93z" fill="url(#IconifyId17ecdb2904d178eab11211)">
</path>
</g>
</svg>